<?xml version="1.0" encoding="UTF-8" standalone="no"?>
<!DOCTYPE svg PUBLIC "-//W3C//DTD SVG 1.1//EN"
 "http://www.w3.org/Graphics/SVG/1.1/DTD/svg11.dtd">
<!-- Generated by graphviz version 2.38.0 (20140413.2041)
 -->
<!-- Title: G Pages: 1 -->
<svg width="1034pt" height="435pt"
 viewBox="0.00 0.00 1034.10 435.00" xmlns="http://www.w3.org/2000/svg" xmlns:xlink="http://www.w3.org/1999/xlink">
<g id="graph0" class="graph" transform="scale(1 1) rotate(0) translate(4 431)">
<title>G</title>
<polygon fill="white" stroke="none" points="-4,4 -4,-431 1030.1,-431 1030.1,4 -4,4"/>
<g id="clust1" class="cluster"><title>cluster_Global</title>
<path fill="none" stroke="gray" d="M20,-8C20,-8 1006.1,-8 1006.1,-8 1012.1,-8 1018.1,-14 1018.1,-20 1018.1,-20 1018.1,-407 1018.1,-407 1018.1,-413 1012.1,-419 1006.1,-419 1006.1,-419 20,-419 20,-419 14,-419 8,-413 8,-407 8,-407 8,-20 8,-20 8,-14 14,-8 20,-8"/>
<text text-anchor="middle" x="513.048" y="-406.2" font-family="Times,serif" font-size="11.00" fill="gray">Global</text>
</g>
<g id="clust2" class="cluster"><title>cluster_\ManoelCampos</title>
<path fill="none" stroke="gray" d="M28,-16C28,-16 998.097,-16 998.097,-16 1004.1,-16 1010.1,-22 1010.1,-28 1010.1,-28 1010.1,-380 1010.1,-380 1010.1,-386 1004.1,-392 998.097,-392 998.097,-392 28,-392 28,-392 22,-392 16,-386 16,-380 16,-380 16,-28 16,-28 16,-22 22,-16 28,-16"/>
<text text-anchor="middle" x="513.048" y="-379.2" font-family="Times,serif" font-size="11.00" fill="gray">ManoelCampos</text>
</g>
<g id="clust3" class="cluster"><title>cluster_\ManoelCampos\RetornoBoleto</title>
<path fill="none" stroke="gray" d="M36,-24C36,-24 990.097,-24 990.097,-24 996.097,-24 1002.1,-30 1002.1,-36 1002.1,-36 1002.1,-353 1002.1,-353 1002.1,-359 996.097,-365 990.097,-365 990.097,-365 36,-365 36,-365 30,-365 24,-359 24,-353 24,-353 24,-36 24,-36 24,-30 30,-24 36,-24"/>
<text text-anchor="middle" x="513.048" y="-352.2" font-family="Times,serif" font-size="11.00" fill="gray">RetornoBoleto</text>
</g>
<!-- \\ManoelCampos\\RetornoBoleto\\RetornoCNAB400 -->
<g id="node1" class="node"><title>\\ManoelCampos\\RetornoBoleto\\RetornoCNAB400</title>
<polygon fill="none" stroke="black" points="754.48,-257 645.649,-257 645.649,-221 754.48,-221 754.48,-257"/>
<text text-anchor="middle" x="700.064" y="-235.7" font-family="Courier,monospace" font-size="11.00">RetornoCNAB400</text>
</g>
<!-- \\ManoelCampos\\RetornoBoleto\\RetornoCNAB400Abstract -->
<g id="node6" class="node"><title>\\ManoelCampos\\RetornoBoleto\\RetornoCNAB400Abstract</title>
<polygon fill="none" stroke="black" points="573.969,-257 412.521,-257 412.521,-221 573.969,-221 573.969,-257"/>
<text text-anchor="start" x="460.24" y="-241.2" font-family="Courier,monospace" font-size="11.00">«abstract»</text>
<text text-anchor="start" x="420.633" y="-230.2" font-family="Courier,monospace" font-size="11.00">RetornoCNAB400Abstract</text>
</g>
<!-- \\ManoelCampos\\RetornoBoleto\\RetornoCNAB400&#45;&gt;\\ManoelCampos\\RetornoBoleto\\RetornoCNAB400Abstract -->
<g id="edge1" class="edge"><title>\\ManoelCampos\\RetornoBoleto\\RetornoCNAB400&#45;&gt;\\ManoelCampos\\RetornoBoleto\\RetornoCNAB400Abstract</title>
<path fill="none" stroke="black" d="M645.785,-239C626.941,-239 605.188,-239 584.15,-239"/>
<polygon fill="none" stroke="black" points="583.895,-235.5 573.895,-239 583.895,-242.5 583.895,-235.5"/>
</g>
<!-- \\ManoelCampos\\RetornoBoleto\\LeituraArquivo -->
<g id="node2" class="node"><title>\\ManoelCampos\\RetornoBoleto\\LeituraArquivo</title>
<polygon fill="none" stroke="black" points="964.6,-338 855.768,-338 855.768,-302 964.6,-302 964.6,-338"/>
<text text-anchor="middle" x="910.184" y="-316.7" font-family="Courier,monospace" font-size="11.00">LeituraArquivo</text>
</g>
<!-- \\ManoelCampos\\RetornoBoleto\\RetornoCNAB240 -->
<g id="node3" class="node"><title>\\ManoelCampos\\RetornoBoleto\\RetornoCNAB240</title>
<polygon fill="none" stroke="black" points="547.661,-311 438.829,-311 438.829,-275 547.661,-275 547.661,-311"/>
<text text-anchor="middle" x="493.245" y="-289.7" font-family="Courier,monospace" font-size="11.00">RetornoCNAB240</text>
</g>
<!-- \\ManoelCampos\\RetornoBoleto\\RetornoAbstract -->
<g id="node8" class="node"><title>\\ManoelCampos\\RetornoBoleto\\RetornoAbstract</title>
<polygon fill="none" stroke="black" points="340.641,-284 225.609,-284 225.609,-248 340.641,-248 340.641,-284"/>
<text text-anchor="start" x="250.12" y="-268.2" font-family="Courier,monospace" font-size="11.00">«abstract»</text>
<text text-anchor="start" x="233.617" y="-257.2" font-family="Courier,monospace" font-size="11.00">RetornoAbstract</text>
</g>
<!-- \\ManoelCampos\\RetornoBoleto\\RetornoCNAB240&#45;&gt;\\ManoelCampos\\RetornoBoleto\\RetornoAbstract -->
<g id="edge2" class="edge"><title>\\ManoelCampos\\RetornoBoleto\\RetornoCNAB240&#45;&gt;\\ManoelCampos\\RetornoBoleto\\RetornoAbstract</title>
<path fill="none" stroke="black" d="M438.919,-286.082C412.211,-282.617 379.599,-278.386 351.208,-274.703"/>
<polygon fill="none" stroke="black" points="351.325,-271.189 340.958,-273.373 350.424,-278.131 351.325,-271.189"/>
</g>
<!-- \\ManoelCampos\\RetornoBoleto\\RetornoCNAB400Bradesco -->
<g id="node4" class="node"><title>\\ManoelCampos\\RetornoBoleto\\RetornoCNAB400Bradesco</title>
<polygon fill="none" stroke="black" points="990.908,-284 829.461,-284 829.461,-248 990.908,-248 990.908,-284"/>
<text text-anchor="middle" x="910.184" y="-262.7" font-family="Courier,monospace" font-size="11.00">RetornoCNAB400Bradesco</text>
</g>
<!-- \\ManoelCampos\\RetornoBoleto\\RetornoCNAB400Bradesco&#45;&gt;\\ManoelCampos\\RetornoBoleto\\RetornoCNAB400 -->
<g id="edge3" class="edge"><title>\\ManoelCampos\\RetornoBoleto\\RetornoCNAB400Bradesco&#45;&gt;\\ManoelCampos\\RetornoBoleto\\RetornoCNAB400</title>
<path fill="none" stroke="black" d="M829.315,-255.638C807.839,-252.852 784.908,-249.877 764.462,-247.225"/>
<polygon fill="none" stroke="black" points="764.698,-243.726 754.331,-245.91 763.798,-250.668 764.698,-243.726"/>
</g>
<!-- \\ManoelCampos\\RetornoBoleto\\RetornoCNAB400Conv7 -->
<g id="node5" class="node"><title>\\ManoelCampos\\RetornoBoleto\\RetornoCNAB400Conv7</title>
<polygon fill="none" stroke="black" points="981.105,-230 839.263,-230 839.263,-194 981.105,-194 981.105,-230"/>
<text text-anchor="middle" x="910.184" y="-208.7" font-family="Courier,monospace" font-size="11.00">RetornoCNAB400Conv7</text>
</g>
<!-- \\ManoelCampos\\RetornoBoleto\\RetornoCNAB400Conv7&#45;&gt;\\ManoelCampos\\RetornoBoleto\\RetornoCNAB400 -->
<g id="edge4" class="edge"><title>\\ManoelCampos\\RetornoBoleto\\RetornoCNAB400Conv7&#45;&gt;\\ManoelCampos\\RetornoBoleto\\RetornoCNAB400</title>
<path fill="none" stroke="black" d="M839.304,-221.066C815.023,-224.216 787.948,-227.728 764.239,-230.804"/>
<polygon fill="none" stroke="black" points="763.769,-227.336 754.303,-232.093 764.67,-234.278 763.769,-227.336"/>
</g>
<!-- \\ManoelCampos\\RetornoBoleto\\RetornoCNAB400Abstract&#45;&gt;\\ManoelCampos\\RetornoBoleto\\RetornoAbstract -->
<g id="edge5" class="edge"><title>\\ManoelCampos\\RetornoBoleto\\RetornoCNAB400Abstract&#45;&gt;\\ManoelCampos\\RetornoBoleto\\RetornoAbstract</title>
<path fill="none" stroke="black" d="M412.376,-249.362C392.072,-251.996 370.467,-254.799 350.892,-257.338"/>
<polygon fill="none" stroke="black" points="350.324,-253.882 340.857,-258.64 351.225,-260.824 350.324,-253.882"/>
</g>
<!-- \\ManoelCampos\\RetornoBoleto\\RetornoFactory -->
<g id="node7" class="node"><title>\\ManoelCampos\\RetornoBoleto\\RetornoFactory</title>
<polygon fill="none" stroke="black" points="964.6,-176 855.768,-176 855.768,-140 964.6,-140 964.6,-176"/>
<text text-anchor="middle" x="910.184" y="-154.7" font-family="Courier,monospace" font-size="11.00">RetornoFactory</text>
</g>
<!-- \\ManoelCampos\\RetornoBoleto\\RetornoInterface -->
<g id="node11" class="node"><title>\\ManoelCampos\\RetornoBoleto\\RetornoInterface</title>
<polygon fill="none" stroke="black" points="153.426,-284 32.1908,-284 32.1908,-248 153.426,-248 153.426,-284"/>
<text text-anchor="middle" x="92.8086" y="-262.7" font-family="Courier,monospace" font-size="11.00">RetornoInterface</text>
</g>
<!-- \\ManoelCampos\\RetornoBoleto\\RetornoAbstract&#45;&gt;\\ManoelCampos\\RetornoBoleto\\RetornoInterface -->
<g id="edge6" class="edge"><title>\\ManoelCampos\\RetornoBoleto\\RetornoAbstract&#45;&gt;\\ManoelCampos\\RetornoBoleto\\RetornoInterface</title>
<path fill="none" stroke="black" stroke-dasharray="1,5" d="M225.369,-266C206.006,-266 184.123,-266 163.842,-266"/>
<polygon fill="none" stroke="black" points="163.719,-262.5 153.719,-266 163.719,-269.5 163.719,-262.5"/>
</g>
<!-- \\ManoelCampos\\RetornoBoleto\\LinhaArquivo -->
<g id="node9" class="node"><title>\\ManoelCampos\\RetornoBoleto\\LinhaArquivo</title>
<polygon fill="none" stroke="black" points="957.897,-122 862.471,-122 862.471,-86 957.897,-86 957.897,-122"/>
<text text-anchor="middle" x="910.184" y="-100.7" font-family="Courier,monospace" font-size="11.00">LinhaArquivo</text>
</g>
<!-- \\ManoelCampos\\RetornoBoleto\\ProcessaLinhaObservable -->
<g id="node10" class="node"><title>\\ManoelCampos\\RetornoBoleto\\ProcessaLinhaObservable</title>
<polygon fill="none" stroke="black" points="994.009,-68 826.36,-68 826.36,-32 994.009,-32 994.009,-68"/>
<text text-anchor="middle" x="910.184" y="-46.7" font-family="Courier,monospace" font-size="11.00">ProcessaLinhaObservable</text>
</g>
</g>
</svg>
