<?xml version="1.0" encoding="UTF-8" standalone="no"?>
<!DOCTYPE svg PUBLIC "-//W3C//DTD SVG 1.1//EN"
 "http://www.w3.org/Graphics/SVG/1.1/DTD/svg11.dtd">
<!-- Generated by graphviz version 2.38.0 (20140413.2041)
 -->
<!-- Title: G Pages: 1 -->
<svg width="1050pt" height="470pt"
 viewBox="0.00 0.00 1050.10 470.00" xmlns="http://www.w3.org/2000/svg" xmlns:xlink="http://www.w3.org/1999/xlink">
<g id="graph0" class="graph" transform="scale(1 1) rotate(0) translate(4 466)">
<title>G</title>
<polygon fill="white" stroke="none" points="-4,4 -4,-466 1046.1,-466 1046.1,4 -4,4"/>
<g id="clust1" class="cluster"><title>cluster_Global</title>
<path fill="none" stroke="gray" d="M20,-8C20,-8 1022.1,-8 1022.1,-8 1028.1,-8 1034.1,-14 1034.1,-20 1034.1,-20 1034.1,-442 1034.1,-442 1034.1,-448 1028.1,-454 1022.1,-454 1022.1,-454 20,-454 20,-454 14,-454 8,-448 8,-442 8,-442 8,-20 8,-20 8,-14 14,-8 20,-8"/>
<text text-anchor="middle" x="521.048" y="-441.2" font-family="Times,serif" font-size="11.00" fill="gray">Global</text>
</g>
<g id="clust2" class="cluster"><title>cluster_\com</title>
<path fill="none" stroke="gray" d="M28,-16C28,-16 1014.1,-16 1014.1,-16 1020.1,-16 1026.1,-22 1026.1,-28 1026.1,-28 1026.1,-415 1026.1,-415 1026.1,-421 1020.1,-427 1014.1,-427 1014.1,-427 28,-427 28,-427 22,-427 16,-421 16,-415 16,-415 16,-28 16,-28 16,-22 22,-16 28,-16"/>
<text text-anchor="middle" x="521.048" y="-414.2" font-family="Times,serif" font-size="11.00" fill="gray">com</text>
</g>
<g id="clust3" class="cluster"><title>cluster_\com\manoelcampos</title>
<path fill="none" stroke="gray" d="M36,-24C36,-24 1006.1,-24 1006.1,-24 1012.1,-24 1018.1,-30 1018.1,-36 1018.1,-36 1018.1,-388 1018.1,-388 1018.1,-394 1012.1,-400 1006.1,-400 1006.1,-400 36,-400 36,-400 30,-400 24,-394 24,-388 24,-388 24,-36 24,-36 24,-30 30,-24 36,-24"/>
<text text-anchor="middle" x="521.048" y="-387.2" font-family="Times,serif" font-size="11.00" fill="gray">manoelcampos</text>
</g>
<g id="clust4" class="cluster"><title>cluster_\com\manoelcampos\RetornoBoleto</title>
<path fill="none" stroke="gray" d="M44,-32C44,-32 998.097,-32 998.097,-32 1004.1,-32 1010.1,-38 1010.1,-44 1010.1,-44 1010.1,-361 1010.1,-361 1010.1,-367 1004.1,-373 998.097,-373 998.097,-373 44,-373 44,-373 38,-373 32,-367 32,-361 32,-361 32,-44 32,-44 32,-38 38,-32 44,-32"/>
<text text-anchor="middle" x="521.048" y="-360.2" font-family="Times,serif" font-size="11.00" fill="gray">RetornoBoleto</text>
</g>
<!-- \\com\\manoelcampos\\RetornoBoleto\\RetornoCNAB400 -->
<g id="node1" class="node"><title>\\com\\manoelcampos\\RetornoBoleto\\RetornoCNAB400</title>
<polygon fill="none" stroke="black" points="762.48,-265 653.649,-265 653.649,-229 762.48,-229 762.48,-265"/>
<text text-anchor="middle" x="708.064" y="-243.7" font-family="Courier,monospace" font-size="11.00">RetornoCNAB400</text>
</g>
<!-- \\com\\manoelcampos\\RetornoBoleto\\RetornoCNAB400Abstract -->
<g id="node6" class="node"><title>\\com\\manoelcampos\\RetornoBoleto\\RetornoCNAB400Abstract</title>
<polygon fill="none" stroke="black" points="581.969,-265 420.521,-265 420.521,-229 581.969,-229 581.969,-265"/>
<text text-anchor="start" x="468.24" y="-249.2" font-family="Courier,monospace" font-size="11.00">«abstract»</text>
<text text-anchor="start" x="428.633" y="-238.2" font-family="Courier,monospace" font-size="11.00">RetornoCNAB400Abstract</text>
</g>
<!-- \\com\\manoelcampos\\RetornoBoleto\\RetornoCNAB400&#45;&gt;\\com\\manoelcampos\\RetornoBoleto\\RetornoCNAB400Abstract -->
<g id="edge1" class="edge"><title>\\com\\manoelcampos\\RetornoBoleto\\RetornoCNAB400&#45;&gt;\\com\\manoelcampos\\RetornoBoleto\\RetornoCNAB400Abstract</title>
<path fill="none" stroke="black" d="M653.785,-247C634.941,-247 613.188,-247 592.15,-247"/>
<polygon fill="none" stroke="black" points="591.895,-243.5 581.895,-247 591.895,-250.5 591.895,-243.5"/>
</g>
<!-- \\com\\manoelcampos\\RetornoBoleto\\LeituraArquivo -->
<g id="node2" class="node"><title>\\com\\manoelcampos\\RetornoBoleto\\LeituraArquivo</title>
<polygon fill="none" stroke="black" points="972.6,-346 863.768,-346 863.768,-310 972.6,-310 972.6,-346"/>
<text text-anchor="middle" x="918.184" y="-324.7" font-family="Courier,monospace" font-size="11.00">LeituraArquivo</text>
</g>
<!-- \\com\\manoelcampos\\RetornoBoleto\\RetornoCNAB240 -->
<g id="node3" class="node"><title>\\com\\manoelcampos\\RetornoBoleto\\RetornoCNAB240</title>
<polygon fill="none" stroke="black" points="555.661,-319 446.829,-319 446.829,-283 555.661,-283 555.661,-319"/>
<text text-anchor="middle" x="501.245" y="-297.7" font-family="Courier,monospace" font-size="11.00">RetornoCNAB240</text>
</g>
<!-- \\com\\manoelcampos\\RetornoBoleto\\RetornoAbstract -->
<g id="node8" class="node"><title>\\com\\manoelcampos\\RetornoBoleto\\RetornoAbstract</title>
<polygon fill="none" stroke="black" points="348.641,-292 233.609,-292 233.609,-256 348.641,-256 348.641,-292"/>
<text text-anchor="start" x="258.12" y="-276.2" font-family="Courier,monospace" font-size="11.00">«abstract»</text>
<text text-anchor="start" x="241.617" y="-265.2" font-family="Courier,monospace" font-size="11.00">RetornoAbstract</text>
</g>
<!-- \\com\\manoelcampos\\RetornoBoleto\\RetornoCNAB240&#45;&gt;\\com\\manoelcampos\\RetornoBoleto\\RetornoAbstract -->
<g id="edge2" class="edge"><title>\\com\\manoelcampos\\RetornoBoleto\\RetornoCNAB240&#45;&gt;\\com\\manoelcampos\\RetornoBoleto\\RetornoAbstract</title>
<path fill="none" stroke="black" d="M446.919,-294.082C420.211,-290.617 387.599,-286.386 359.208,-282.703"/>
<polygon fill="none" stroke="black" points="359.325,-279.189 348.958,-281.373 358.424,-286.131 359.325,-279.189"/>
</g>
<!-- \\com\\manoelcampos\\RetornoBoleto\\RetornoCNAB400Bradesco -->
<g id="node4" class="node"><title>\\com\\manoelcampos\\RetornoBoleto\\RetornoCNAB400Bradesco</title>
<polygon fill="none" stroke="black" points="998.908,-292 837.461,-292 837.461,-256 998.908,-256 998.908,-292"/>
<text text-anchor="middle" x="918.184" y="-270.7" font-family="Courier,monospace" font-size="11.00">RetornoCNAB400Bradesco</text>
</g>
<!-- \\com\\manoelcampos\\RetornoBoleto\\RetornoCNAB400Bradesco&#45;&gt;\\com\\manoelcampos\\RetornoBoleto\\RetornoCNAB400 -->
<g id="edge3" class="edge"><title>\\com\\manoelcampos\\RetornoBoleto\\RetornoCNAB400Bradesco&#45;&gt;\\com\\manoelcampos\\RetornoBoleto\\RetornoCNAB400</title>
<path fill="none" stroke="black" d="M837.315,-263.638C815.839,-260.852 792.908,-257.877 772.462,-255.225"/>
<polygon fill="none" stroke="black" points="772.698,-251.726 762.331,-253.91 771.798,-258.668 772.698,-251.726"/>
</g>
<!-- \\com\\manoelcampos\\RetornoBoleto\\RetornoCNAB400Conv7 -->
<g id="node5" class="node"><title>\\com\\manoelcampos\\RetornoBoleto\\RetornoCNAB400Conv7</title>
<polygon fill="none" stroke="black" points="989.105,-238 847.263,-238 847.263,-202 989.105,-202 989.105,-238"/>
<text text-anchor="middle" x="918.184" y="-216.7" font-family="Courier,monospace" font-size="11.00">RetornoCNAB400Conv7</text>
</g>
<!-- \\com\\manoelcampos\\RetornoBoleto\\RetornoCNAB400Conv7&#45;&gt;\\com\\manoelcampos\\RetornoBoleto\\RetornoCNAB400 -->
<g id="edge4" class="edge"><title>\\com\\manoelcampos\\RetornoBoleto\\RetornoCNAB400Conv7&#45;&gt;\\com\\manoelcampos\\RetornoBoleto\\RetornoCNAB400</title>
<path fill="none" stroke="black" d="M847.304,-229.066C823.023,-232.216 795.948,-235.728 772.239,-238.804"/>
<polygon fill="none" stroke="black" points="771.769,-235.336 762.303,-240.093 772.67,-242.278 771.769,-235.336"/>
</g>
<!-- \\com\\manoelcampos\\RetornoBoleto\\RetornoCNAB400Abstract&#45;&gt;\\com\\manoelcampos\\RetornoBoleto\\RetornoAbstract -->
<g id="edge5" class="edge"><title>\\com\\manoelcampos\\RetornoBoleto\\RetornoCNAB400Abstract&#45;&gt;\\com\\manoelcampos\\RetornoBoleto\\RetornoAbstract</title>
<path fill="none" stroke="black" d="M420.376,-257.362C400.072,-259.996 378.467,-262.799 358.892,-265.338"/>
<polygon fill="none" stroke="black" points="358.324,-261.882 348.857,-266.64 359.225,-268.824 358.324,-261.882"/>
</g>
<!-- \\com\\manoelcampos\\RetornoBoleto\\RetornoFactory -->
<g id="node7" class="node"><title>\\com\\manoelcampos\\RetornoBoleto\\RetornoFactory</title>
<polygon fill="none" stroke="black" points="972.6,-184 863.768,-184 863.768,-148 972.6,-148 972.6,-184"/>
<text text-anchor="middle" x="918.184" y="-162.7" font-family="Courier,monospace" font-size="11.00">RetornoFactory</text>
</g>
<!-- \\com\\manoelcampos\\RetornoBoleto\\RetornoInterface -->
<g id="node11" class="node"><title>\\com\\manoelcampos\\RetornoBoleto\\RetornoInterface</title>
<polygon fill="none" stroke="black" points="161.426,-292 40.1908,-292 40.1908,-256 161.426,-256 161.426,-292"/>
<text text-anchor="middle" x="100.809" y="-270.7" font-family="Courier,monospace" font-size="11.00">RetornoInterface</text>
</g>
<!-- \\com\\manoelcampos\\RetornoBoleto\\RetornoAbstract&#45;&gt;\\com\\manoelcampos\\RetornoBoleto\\RetornoInterface -->
<g id="edge6" class="edge"><title>\\com\\manoelcampos\\RetornoBoleto\\RetornoAbstract&#45;&gt;\\com\\manoelcampos\\RetornoBoleto\\RetornoInterface</title>
<path fill="none" stroke="black" stroke-dasharray="1,5" d="M233.369,-274C214.006,-274 192.123,-274 171.842,-274"/>
<polygon fill="none" stroke="black" points="171.719,-270.5 161.719,-274 171.719,-277.5 171.719,-270.5"/>
</g>
<!-- \\com\\manoelcampos\\RetornoBoleto\\LinhaArquivo -->
<g id="node9" class="node"><title>\\com\\manoelcampos\\RetornoBoleto\\LinhaArquivo</title>
<polygon fill="none" stroke="black" points="965.897,-130 870.471,-130 870.471,-94 965.897,-94 965.897,-130"/>
<text text-anchor="middle" x="918.184" y="-108.7" font-family="Courier,monospace" font-size="11.00">LinhaArquivo</text>
</g>
<!-- \\com\\manoelcampos\\RetornoBoleto\\ProcessaLinhaObservable -->
<g id="node10" class="node"><title>\\com\\manoelcampos\\RetornoBoleto\\ProcessaLinhaObservable</title>
<polygon fill="none" stroke="black" points="1002.01,-76 834.36,-76 834.36,-40 1002.01,-40 1002.01,-76"/>
<text text-anchor="middle" x="918.184" y="-54.7" font-family="Courier,monospace" font-size="11.00">ProcessaLinhaObservable</text>
</g>
</g>
</svg>
